# xmcd
#
# Track frame offsets:
#	150
#	4662
#	104494
#
# Disc length: 2724 seconds
#
# Revision: 2
# Processed by: cddbd v1.5.2PL0 Copyright (c) Steve Scherf et al.
# Submitted via: EZCDAudioConverter 8.0.2.1
#
DISCID=1a0aa203
DTITLE=Hài Vân Sơn - Live Show 04
DYEAR=2002
DGENRE=
TTITLE0=MC Việt Thảo - Giới thiệu
TTITLE1=Nguyễn Dương, Thu Tuyết , Út Mập - Kế hoạch
TTITLE2=Vân Sơn, Hoài Linh - Tình già
EXTD=
EXTT0=
EXTT1=
EXTT2=
PLAYORDER=
